<svg width="32" height="32" viewBox="0 0 32 32" fill="none" xmlns="http://www.w3.org/2000/svg">
<g clip-path="url(#clip0_2318_50402)">
<path d="M15.9995 2.16797C21.4355 2.16797 25.8333 6.56498 25.8335 12.001C25.8335 14.4208 25.1368 16.6855 23.8638 18.7197L23.8628 18.7188C23.2139 19.7769 22.4662 20.7532 21.7339 21.7031C21.0879 22.541 20.4558 23.3586 19.8892 24.2168L19.6499 24.5869C19.1942 25.3142 18.8396 26.0064 18.4829 26.7617L18.1216 27.542C18.044 27.7126 17.9753 27.9011 17.8774 28.1436C17.7856 28.371 17.6746 28.6271 17.5327 28.8652C17.2468 29.3451 16.7788 29.835 15.9995 29.835C15.2207 29.8348 14.7534 29.3456 14.4663 28.8672C14.3239 28.6298 14.212 28.3739 14.1187 28.1475C14.0194 27.9067 13.9472 27.716 13.8677 27.5479L13.8628 27.5381C13.3871 26.4679 12.9451 25.5582 12.3364 24.5869L12.3354 24.5859C11.7109 23.5841 10.9902 22.6503 10.2524 21.6934C9.51975 20.743 8.76978 19.7691 8.12061 18.7168V18.7158C6.8627 16.6832 6.1665 14.42 6.1665 12.001C6.16668 6.56509 10.5636 2.16814 15.9995 2.16797ZM15.9995 9.50098C14.4358 9.50115 13.1665 10.7712 13.1665 12.335C13.1667 13.8986 14.4359 15.1678 15.9995 15.168C17.5633 15.168 18.8333 13.8987 18.8335 12.335C18.8335 10.7711 17.5634 9.50098 15.9995 9.50098Z" fill="#D32F2F" stroke="white"/>
<circle cx="15.9998" cy="12.0013" r="5.33333" fill="white"/>
</g>
<defs>
<clipPath id="clip0_2318_50402">
<rect width="32" height="32" fill="white"/>
</clipPath>
</defs>
</svg>
