<svg width="20" height="20" viewBox="0 0 20 20" fill="none" xmlns="http://www.w3.org/2000/svg">
<path d="M16.84 2.5C18.0329 2.5 19 3.48279 19 4.69512C19 5.90745 18.0329 6.89024 16.84 6.89024C16.6391 6.89024 16.4448 6.86163 16.2603 6.8095L15.2604 8.41333C15.5723 8.79385 15.76 9.28315 15.76 9.81707C15.76 10.4307 15.5118 10.9851 15.1124 11.3834L16.2223 13.2009C16.418 13.1416 16.6253 13.1098 16.84 13.1098C18.0329 13.1098 19 14.0925 19 15.3049C19 16.5172 18.0329 17.5 16.84 17.5C15.8996 17.5 15.1 16.8891 14.8034 16.0366H5.19659C4.90002 16.8891 4.10042 17.5 3.16 17.5C1.96706 17.5 1 16.5172 1 15.3049C1 14.3624 1.58451 13.5588 2.4052 13.2477L2.37004 11.1283C1.56798 10.8077 1 10.0143 1 9.08537C1 7.87304 1.96706 6.89024 3.16 6.89024C3.5096 6.89024 3.83957 6.97512 4.13172 7.12498L5.81993 5.47292C5.72972 5.23112 5.68 4.96905 5.68 4.69512C5.68 3.48279 6.64707 2.5 7.84 2.5C8.71163 2.5 9.46212 3.02495 9.80348 3.78049H14.8765C15.2179 3.02495 15.9684 2.5 16.84 2.5ZM9.93214 5.2439C9.69238 6.1907 8.84649 6.89024 7.84 6.89024C7.44339 6.89024 7.07205 6.78115 6.75262 6.59156L5.12805 8.18145C5.25088 8.4572 5.32 8.76301 5.32 9.08537C5.32 10.0671 4.68579 10.898 3.81109 11.1787L3.8452 13.223C4.4752 13.4371 4.97559 13.9378 5.19659 14.5732H14.8034C14.8663 14.3923 14.9514 14.2221 15.0562 14.0665L13.7955 12.0025C13.7311 12.0084 13.6659 12.0122 13.6 12.0122C12.4071 12.0122 11.44 11.0294 11.44 9.81707C11.44 8.60474 12.4071 7.62195 13.6 7.62195C13.7449 7.62195 13.8864 7.63648 14.0233 7.6641L15.0804 5.96775C14.9291 5.75208 14.8147 5.50776 14.7479 5.2439H9.93214Z" fill="#4F524F"/>
</svg>
